<?xml version="1.0" encoding="utf-8"?>
<!-- Generator: Adobe Illustrator 24.0.0, SVG Export Plug-In . SVG Version: 6.00 Build 0)  -->
<svg version="1.1" id="Capa_1" xmlns="http://www.w3.org/2000/svg" xmlns:xlink="http://www.w3.org/1999/xlink" x="0px" y="0px"
	 viewBox="0 0 501 424" style="enable-background:new 0 0 501 424;" xml:space="preserve">
<g>
	<path d="M114.4,286.9v-26.5c19.8-6.4,34.3-25.1,34.3-47c0-21.9-14.4-40.6-34.3-47v-27.2h16.4l-30-30H84.4v84.8l14.9,0.1
		c10.6,0,19.3,8.7,19.3,19.4s-8.7,19.3-19.3,19.4l-14.9,0.1v84.1h224.1l-30-30H114.4z"/>
	<path d="M414.7,194c0.1,0,0.3,0,0.4,0l15.2,0.2v-85H185.9l30,30h93.5v11.1c0,8.3,6.7,15,15,15s15-6.7,15-15v-11.1h60.9v27
		c-20.2,6.2-34.9,25-34.9,47.2c0,22.2,14.7,41,34.9,47.2v26.3h-36.7l30,30h36.7v-84.3l-15.2,0.2c-0.1,0-0.3,0-0.4,0
		c-10.6-0.1-19.2-8.7-19.2-19.4C395.5,202.7,404.1,194.1,414.7,194z"/>
	<path d="M324.5,179.2c-8.3,0-15,6.7-15,15v35.6c0,8.3,6.7,15,15,15s15-6.7,15-15v-35.6C339.5,185.9,332.8,179.2,324.5,179.2z"/>
</g>
<path d="M407.5,387.9c-3.8,0-7.7-1.5-10.6-4.4L77.1,63.7c-5.9-5.9-5.9-15.4,0-21.2c5.9-5.9,15.4-5.9,21.2,0l319.8,319.8
	c5.9,5.9,5.9,15.4,0,21.2C415.2,386.5,411.4,387.9,407.5,387.9z"/>
</svg>
